<?xml version="1.0" standalone="no"?>
<!DOCTYPE svg PUBLIC "-//W3C//DTD SVG 1.1//EN">
<svg t="1613879550068" class="icon" viewBox="0 0 1050 1050" version="1.1" p-id="1980" width="200" height="200">
  <path d="M927.2 610.5c0 143-116.3 259.4-259.3 259.4H196.1c-12.9 0-23.4-10.4-23.4-23.4 0-12.9 10.4-23.4 23.4-23.4h471.7c117.2 0 212.6-95.4 212.6-212.6S785 397.8 667.8 397.8h-458l199.6 199.6c9.1 9.1 9.1 23.9 0 33-4.6 4.6-10.5 6.8-16.5 6.8s-11.9-2.3-16.5-6.8L137 391.1c-9.1-9.1-9.1-23.9 0-33l239.6-239.5c9.1-9.1 23.9-9.1 33 0s9.1 23.9 0 33L210 351.2h457.9c143 0 259.3 116.3 259.3 259.3z" p-id="1981"></path>
</svg>