<?xml version="1.0" standalone="no"?>
<!DOCTYPE svg PUBLIC "-//W3C//DTD SVG 1.1//EN">
<svg t="1613879610910" class="icon" viewBox="0 0 1024 1024" version="1.1" p-id="2723" width="200" height="200">
  <path d="M887.466667 0H136.533333a136.533333 136.533333 0 0 0-136.533333 136.533333v750.933334a136.533333 136.533333 0 0 0 136.533333 136.533333h750.933334a136.533333 136.533333 0 0 0 136.533333-136.533333V136.533333a136.533333 136.533333 0 0 0-136.533333-136.533333z m68.266666 887.466667a68.266667 68.266667 0 0 1-68.266666 68.266666H136.533333a68.266667 68.266667 0 0 1-68.266666-68.266666V136.533333a68.266667 68.266667 0 0 1 68.266666-68.266666h750.933334a68.266667 68.266667 0 0 1 68.266666 68.266666z" fill="#019601" p-id="2724"></path>
  <path d="M757.76 286.72L470.357333 664.234667l-204.8-217.088a34.133333 34.133333 0 0 0-49.152 47.104l234.154667 245.76a34.133333 34.133333 0 0 0 18.432 6.144 34.133333 34.133333 0 0 0 13.653333 0h4.096l6.144-4.096 311.978667-409.6a34.133333 34.133333 0 1 0-53.930667-41.642667z" fill="#019601" p-id="2725"></path>
</svg>