<?xml version="1.0" standalone="no"?><!DOCTYPE svg PUBLIC "-//W3C//DTD SVG 1.1//EN" "http://www.w3.org/Graphics/SVG/1.1/DTD/svg11.dtd"><svg t="1613879233875" class="icon" viewBox="0 0 1117 1024" version="1.1" xmlns="http://www.w3.org/2000/svg" p-id="821" xmlns:xlink="http://www.w3.org/1999/xlink" width="218.1640625" height="200"><defs><style type="text/css"></style></defs><path d="M46.545455 186.181818h1024a46.545455 46.545455 0 1 1 0 93.090909H46.545455a46.545455 46.545455 0 0 1 0-93.090909z" fill="#1F2E4D" p-id="822"></path><path d="M930.909091 186.181818v651.636364a186.181818 186.181818 0 0 1-186.181818 186.181818H372.363636a186.181818 186.181818 0 0 1-186.181818-186.181818V186.181818h744.727273zM837.818182 279.272727H279.272727v558.545455a93.090909 93.090909 0 0 0 82.199273 92.439273L372.363636 930.909091h372.363637a93.090909 93.090909 0 0 0 92.439272-82.199273L837.818182 837.818182V279.272727z" fill="#1F2E4D" p-id="823"></path><path d="M418.909091 0h279.272727a46.545455 46.545455 0 0 1 0 93.090909h-279.272727a46.545455 46.545455 0 0 1 0-93.090909z" fill="#1F2E4D" p-id="824"></path><path d="M465.454545 465.268364a46.545455 46.545455 0 0 1 45.800728 38.167272l0.744727 8.378182v186.181818a46.545455 46.545455 0 0 1-92.346182 8.378182l-0.744727-8.378182v-186.181818a46.545455 46.545455 0 0 1 46.545454-46.545454zM651.636364 465.268364a46.545455 46.545455 0 0 1 45.800727 38.167272l0.744727 8.378182v186.181818a46.545455 46.545455 0 0 1-92.346182 8.378182l-0.744727-8.378182v-186.181818a46.545455 46.545455 0 0 1 46.545455-46.545454z" fill="#1F2E4D" p-id="825"></path></svg>