<?xml version="1.0" standalone="no"?><!DOCTYPE svg PUBLIC "-//W3C//DTD SVG 1.1//EN" "http://www.w3.org/Graphics/SVG/1.1/DTD/svg11.dtd"><svg t="1613879257091" class="icon" viewBox="0 0 1024 1024" version="1.1" xmlns="http://www.w3.org/2000/svg" p-id="960" xmlns:xlink="http://www.w3.org/1999/xlink" width="200" height="200"><defs><style type="text/css"></style></defs><path d="M513.102769 39.384615a39.384615 39.384615 0 0 1 7.089231 78.139077l-7.089231 0.630154H236.307692a118.153846 118.153846 0 0 0-117.602461 106.811077L118.153846 236.307692v551.384616a118.153846 118.153846 0 0 0 106.811077 117.602461L236.307692 905.846154h551.384616a118.153846 118.153846 0 0 0 117.602461-106.811077L905.846154 787.692308V512.236308a39.384615 39.384615 0 0 1 78.139077-7.089231l0.630154 7.089231V787.692308a196.923077 196.923077 0 0 1-184.004923 196.52923L787.692308 984.615385H236.307692a196.923077 196.923077 0 0 1-196.52923-184.004923L39.384615 787.692308V236.307692A196.923077 196.923077 0 0 1 223.389538 39.778462L236.307692 39.384615h276.795077z" fill="#1F2E4D" p-id="961"></path><path d="M917.346462 50.884923a39.384615 39.384615 0 0 1 60.258461 50.254769l-4.489846 5.513846-433.230769 433.23077a39.384615 39.384615 0 0 1-60.258462-50.25477l4.489846-5.513846 433.23077-433.230769z" fill="#1F2E4D" p-id="962"></path></svg>